<svg width="20" height="24" viewBox="0 0 20 24" fill="none" xmlns="http://www.w3.org/2000/svg">
<path d="M10.6715 0.352429L18.4802 2.97237C19.3543 3.26425 19.9453 4.06719 19.9501 4.96704L19.9998 12.7796C20.0152 15.148 19.1518 17.4449 17.5706 19.2446C16.8434 20.0707 15.9113 20.7802 14.7209 21.4147L10.5234 23.6585C10.392 23.7277 10.2475 23.7635 10.1018 23.7647C9.9561 23.7658 9.81042 23.7312 9.68014 23.6631L5.44355 21.4712C4.2402 20.8471 3.29979 20.148 2.56546 19.3335C0.958235 17.5522 0.0651991 15.2657 0.0498019 12.8938L2.84429e-05 5.08702C-0.00468036 4.18602 0.575675 3.37731 1.44502 3.07389L9.22415 0.360504C9.68606 0.196686 10.2013 0.193225 10.6715 0.352429ZM14.4057 8.72783C14.0563 8.39212 13.4937 8.39442 13.149 8.73475L9.18601 12.641L7.56339 11.0813C7.21399 10.7456 6.65258 10.749 6.30674 11.0894C5.96208 11.4297 5.96563 11.9765 6.31503 12.3122L8.56894 14.4811C8.74423 14.6495 8.97163 14.7326 9.19904 14.7303C9.42644 14.7291 9.65266 14.6438 9.82558 14.473L14.4128 9.9507C14.7574 9.61037 14.7539 9.06354 14.4057 8.72783Z" fill="black"/>
</svg>
